<svg xmlns="http://www.w3.org/2000/svg" width="700" height="265">
<rect width="100%" height="100%" fill="white"/>
<line x1="220" y1="42.5" x2="480" y2="42.5" stroke="rgb(255,0,0)" stroke-width="5.5" stroke-opacity="0.7"/>
<line x1="220" y1="42.5" x2="480" y2="87.5" stroke="rgb(204,0,51)" stroke-width="4.5" stroke-opacity="0.7"/>
<line x1="220" y1="87.5" x2="480" y2="87.5" stroke="rgb(255,0,0)" stroke-width="5.5" stroke-opacity="0.7"/>
<line x1="220" y1="42.5" x2="480" y2="132.5" stroke="rgb(51,0,204)" stroke-width="1.5" stroke-opacity="0.7"/>
<line x1="220" y1="87.5" x2="480" y2="132.5" stroke="rgb(230,0,25)" stroke-width="5.0" stroke-opacity="0.7"/>
<line x1="220" y1="132.5" x2="480" y2="132.5" stroke="rgb(255,0,0)" stroke-width="5.5" stroke-opacity="0.7"/>
<line x1="220" y1="42.5" x2="480" y2="177.5" stroke="rgb(26,0,230)" stroke-width="1.0" stroke-opacity="0.7"/>
<line x1="220" y1="87.5" x2="480" y2="177.5" stroke="rgb(26,0,230)" stroke-width="1.0" stroke-opacity="0.7"/>
<line x1="220" y1="132.5" x2="480" y2="177.5" stroke="rgb(76,0,178)" stroke-width="2.0" stroke-opacity="0.7"/>
<line x1="220" y1="177.5" x2="480" y2="177.5" stroke="rgb(255,0,0)" stroke-width="5.5" stroke-opacity="0.7"/>
<line x1="220" y1="42.5" x2="480" y2="222.5" stroke="rgb(26,0,230)" stroke-width="1.0" stroke-opacity="0.7"/>
<line x1="220" y1="87.5" x2="480" y2="222.5" stroke="rgb(51,0,204)" stroke-width="1.5" stroke-opacity="0.7"/>
<line x1="220" y1="132.5" x2="480" y2="222.5" stroke="rgb(204,0,51)" stroke-width="4.5" stroke-opacity="0.7"/>
<line x1="220" y1="177.5" x2="480" y2="222.5" stroke="rgb(230,0,25)" stroke-width="5.0" stroke-opacity="0.7"/>
<line x1="220" y1="222.5" x2="480" y2="222.5" stroke="rgb(255,0,0)" stroke-width="5.5" stroke-opacity="0.7"/>
<text x="210" y="42.5" text-anchor="end" dominant-baseline="middle" font-family="sans-serif">I</text>
<text x="490" y="42.5" text-anchor="start" dominant-baseline="middle" font-family="sans-serif">I</text>
<text x="210" y="87.5" text-anchor="end" dominant-baseline="middle" font-family="sans-serif">like</text>
<text x="490" y="87.5" text-anchor="start" dominant-baseline="middle" font-family="sans-serif">like</text>
<text x="210" y="132.5" text-anchor="end" dominant-baseline="middle" font-family="sans-serif">doing</text>
<text x="490" y="132.5" text-anchor="start" dominant-baseline="middle" font-family="sans-serif">doing</text>
<text x="210" y="177.5" text-anchor="end" dominant-baseline="middle" font-family="sans-serif">my</text>
<text x="490" y="177.5" text-anchor="start" dominant-baseline="middle" font-family="sans-serif">my</text>
<text x="210" y="222.5" text-anchor="end" dominant-baseline="middle" font-family="sans-serif">homework.</text>
<text x="490" y="222.5" text-anchor="start" dominant-baseline="middle" font-family="sans-serif">homework.</text>
</svg>